<?xml version="1.0" encoding="UTF-8"?>
<svg version="1.1" xmlns="http://www.w3.org/2000/svg" width="500" height="500">
<path d="M0 0 C10.23 0 20.46 0 31 0 C31.24956592 16.66743855 31.24956592 16.66743855 31.35546875 23.90625 C31.42705482 28.79884109 31.49892505 33.69142655 31.57275391 38.58398438 C32.09501517 73.24038037 32.09501517 73.24038037 32 90 C32.66 90 33.32 90 34 90 C34.2666748 89.14446533 34.53334961 88.28893066 34.80810547 87.4074707 C36.0173944 83.95027168 37.46210714 80.7702801 39.0703125 77.48046875 C39.53479042 76.52649704 39.53479042 76.52649704 40.00865173 75.55325317 C41.04384123 73.42956051 42.08439062 71.30854153 43.125 69.1875 C43.86024591 67.68203185 44.59518225 66.17641248 45.32983398 64.6706543 C47.40773219 60.41474686 49.49086471 56.16141929 51.57501221 51.90856934 C53.10156454 48.7926947 54.62684714 45.67620091 56.15185547 42.55957031 C63.09502272 28.36999661 70.04527079 14.18391038 77 0 C87.23 0 97.46 0 108 0 C109.7670585 17.67058498 111.41658735 35.34543034 112.91516113 53.04077148 C113.09562686 55.16737115 113.2776552 57.29383884 113.46130371 59.42016602 C113.72246237 62.45160353 113.97729801 65.48351111 114.23046875 68.515625 C114.34744362 69.85799225 114.34744362 69.85799225 114.46678162 71.22747803 C114.97998555 77.4958896 115.08348429 83.71207456 115 90 C118.45315475 86.8408764 119.86251674 83.07378891 121.59765625 78.8125 C121.94449463 77.97798309 122.29133301 77.14346619 122.64868164 76.28366089 C123.79341097 73.52519877 124.92780547 70.7626032 126.0625 68 C126.85588361 66.08446421 127.65008426 64.16926664 128.44506836 62.25439453 C130.11123108 58.23899545 131.77378104 54.22212955 133.43359375 50.20410156 C137.22068384 41.04172853 141.03919674 31.89249919 144.86349487 22.74560547 C146.05294276 19.89788153 147.23870498 17.04864324 148.42407227 14.19921875 C149.14846652 12.46348584 149.87298753 10.72780583 150.59765625 8.9921875 C150.92910645 8.19320038 151.26055664 7.39421326 151.60205078 6.5710144 C153.88620198 1.11379802 153.88620198 1.11379802 155 0 C157.3756852 -0.0883967 159.72208674 -0.11530305 162.09765625 -0.09765625 C163.16094398 -0.09553383 163.16094398 -0.09553383 164.24571228 -0.09336853 C166.51801712 -0.08775443 168.79022475 -0.07519963 171.0625 -0.0625 C172.59960796 -0.05748681 174.13671745 -0.05292359 175.67382812 -0.04882812 C179.44925642 -0.03778042 183.22461171 -0.02050641 187 0 C182.50808395 11.12401989 177.77355247 22.11019587 172.80926514 33.03112793 C170.83006946 37.38710296 168.86178412 41.74799582 166.89453125 46.109375 C166.48895996 47.00851624 166.08338867 47.90765747 165.66552734 48.83404541 C161.33792834 58.44460643 157.10035074 68.09414479 152.875 77.75 C144.65453143 96.53220841 136.34092182 115.27083919 128 134 C115.79 134 103.58 134 91 134 C90.823479 131.3091626 90.64695801 128.6183252 90.46508789 125.84594727 C89.88258825 116.97679492 89.29501128 108.10798429 88.7049036 99.23933506 C88.34711669 93.85982917 87.99106571 88.48021988 87.63891602 83.1003418 C87.29930475 77.91297958 86.95521982 72.72593209 86.60796928 67.53907585 C86.47597759 65.55554789 86.34562583 63.57191013 86.21690559 61.58816719 C86.03698608 58.81962259 85.85135235 56.05151821 85.66430664 53.28344727 C85.61179749 52.45482681 85.55928833 51.62620636 85.50518799 50.7724762 C85.57327779 47.0777894 85.57327779 47.0777894 84 44 C76.71421917 58.94534729 69.45823001 73.89869528 62.5 89 C55.54081554 104.10337613 48.27358783 119.04495959 41 134 C28.79 134 16.58 134 4 134 C2.85049384 114.45839535 2.85049384 114.45839535 2.61108398 106.80615234 C2.58167725 105.92377899 2.55227051 105.04140564 2.52197266 104.1322937 C2.42769954 101.28357842 2.33669756 98.43477167 2.24609375 95.5859375 C2.18035218 93.55782789 2.1145187 91.52972126 2.04859924 89.50161743 C1.91177974 85.27440147 1.77671973 81.0471337 1.64282227 76.81982422 C1.47319788 71.47189371 1.29816356 66.12415593 1.12164211 60.7764492 C0.9843456 56.59282542 0.85052214 52.40909543 0.7176075 48.22533035 C0.65458776 46.25704846 0.59044313 44.28880216 0.52502251 42.3205986 C0.05801301 28.20622179 -0.05421631 14.12283793 0 0 Z " fill="#000000" transform="translate(182,176)"/>
<path d="M0 0 C5.81939461 5.29489982 10.47831993 13.4263497 11.12109375 21.33984375 C11.40681847 34.82905821 7.82493231 46.63258771 -1.26953125 56.81640625 C-19.39748534 74.41550592 -46.21139273 75.7629759 -70.0625 75.57421875 C-73.83352987 75.49879815 -77.41457595 75.1854191 -81.1171875 74.40625 C-78.54701699 86.24313166 -78.54701699 86.24313166 -71.1171875 95.40625 C-63.32901427 99.98752837 -54.08881234 100.20744842 -45.45703125 98.12109375 C-36.59264151 95.41294129 -30.26282315 90.12470348 -25.1171875 82.40625 C-22.41874604 81.75644149 -20.73946123 82.0779573 -18.29296875 83.36865234 C-16.183441 84.71404615 -14.14893615 86.13366495 -12.1171875 87.59375 C-11.41851562 88.07650391 -10.71984375 88.55925781 -10 89.05664062 C-5.98077538 91.88147302 -2.47420667 94.8197471 0.8828125 98.40625 C-7.57173295 109.2104458 -7.57173295 109.2104458 -12.1171875 113.40625 C-12.5915625 113.87417969 -13.0659375 114.34210938 -13.5546875 114.82421875 C-28.31809029 128.62941991 -48.55867376 130.12224595 -67.72460938 129.53369141 C-81.0665607 128.82302828 -93.91017602 123.0063066 -103.046875 113.1953125 C-115.57511731 96.31764267 -117.21110364 77.15195025 -114.79638672 56.6875 C-111.81000509 38.80549676 -103.7701702 23.27701209 -91.1171875 10.40625 C-90.50230469 9.77847656 -89.88742188 9.15070313 -89.25390625 8.50390625 C-66.97559896 -12.53406701 -25.29354821 -19.04016175 0 0 Z M-63.1171875 25.40625 C-63.73464844 25.88578125 -64.35210937 26.3653125 -64.98828125 26.859375 C-70.9327893 32.10219279 -73.97200043 39.27461001 -77.1171875 46.40625 C-77.1171875 46.73625 -77.1171875 47.06625 -77.1171875 47.40625 C-62.92662037 49.71851061 -44.19252222 50.5324144 -31.3671875 43.03125 C-26.90515465 39.74860909 -23.53849248 35.83305082 -22.1171875 30.40625 C-22.24762412 26.68880635 -22.54198958 24.26904687 -24.6171875 21.15625 C-37.27643301 12.29477814 -51.84129776 16.55414964 -63.1171875 25.40625 Z " fill="#000000" transform="translate(144.1171875,183.59375)"/>
<path d="M0 0 C4.45675093 4.17476514 4.45675093 4.17476514 6.09375 6.68359375 C5.70706432 9.97700389 4.6597762 11.43952665 2.14453125 13.5234375 C1.54318359 14.02939453 0.94183594 14.53535156 0.32226562 15.05664062 C-0.31001953 15.57291016 -0.94230469 16.08917969 -1.59375 16.62109375 C-2.51317383 17.38969727 -2.51317383 17.38969727 -3.45117188 18.17382812 C-4.67138993 19.19218614 -5.89775832 20.20322303 -7.13037109 21.20654297 C-8.29913417 22.17863764 -9.44410863 23.18018851 -10.56103516 24.21142578 C-14.36734414 27.67769332 -14.36734414 27.67769332 -17.046875 27.70703125 C-19.99239976 26.08575502 -22.13789691 23.82041297 -24.515625 21.47265625 C-30.40284659 17.0668597 -36.64365818 16.15087069 -43.84375 16.24609375 C-45.02517578 16.25527832 -45.02517578 16.25527832 -46.23046875 16.26464844 C-51.88769338 16.41685026 -57.38145235 16.94370998 -61.90625 20.68359375 C-63.91785858 23.89290349 -64.2627713 26.81684914 -64.5625 30.5859375 C-63.42815607 34.21178683 -61.0950306 35.90033916 -57.90625 37.68359375 C-53.0686002 39.4680405 -48.1271724 40.83082348 -43.15625 42.18359375 C-15.18438665 49.87721667 -15.18438665 49.87721667 -8.03125 62.30859375 C-3.08156984 71.6507053 -3.88786916 82.94095254 -6.46875 92.93359375 C-10.52504467 105.4995975 -18.04408139 115.19102432 -29.71875 121.49609375 C-47.88397463 129.89963225 -72.03933794 130.55485048 -91.00292969 124.38574219 C-101.50859654 120.51012676 -112.63959475 113.9914832 -117.90625 103.68359375 C-117.26277863 99.02149464 -114.14941036 96.77711035 -110.78125 93.80859375 C-110.18957031 93.2784668 -109.59789062 92.74833984 -108.98828125 92.20214844 C-107.82054113 91.1582401 -106.6497256 90.11775988 -105.47558594 89.08105469 C-104.18492352 87.93174671 -102.9206171 86.75290902 -101.6640625 85.56640625 C-99.27618146 83.34833008 -97.38500859 81.8172008 -94.21875 80.93359375 C-91.30384933 81.87896694 -90.63394995 83.34646942 -89.1015625 85.8984375 C-83.7718192 93.85821753 -76.02270129 96.87323463 -66.90625 98.68359375 C-59.70527449 99.52850821 -52.48876102 98.89775679 -45.90625 95.68359375 C-42.01985056 92.33324941 -40.01224997 88.97679338 -39.59375 83.87109375 C-39.65845471 80.88928507 -39.91957208 79.65810802 -41.34375 76.93359375 C-47.44541283 71.57603614 -55.65031759 69.77171164 -63.34375 67.74609375 C-74.89416509 64.55266683 -86.73675312 60.90077909 -93.4765625 50.1875 C-98.95658054 39.65020816 -99.18673027 29.05757879 -96 17.66796875 C-92.08547848 6.98691718 -85.00037932 -0.6859902 -74.9140625 -5.84765625 C-69.05609033 -8.41145068 -63.221747 -10.31616179 -56.90625 -11.31640625 C-55.90271484 -11.48269531 -55.90271484 -11.48269531 -54.87890625 -11.65234375 C-35.79426918 -14.28225649 -15.47513457 -12.33434785 0 0 Z " fill="#000000" transform="translate(473.90625,185.31640625)"/>
</svg>
